<svg width="138" height="31" viewBox="0 0 138 31" fill="none" xmlns="http://www.w3.org/2000/svg">
<path d="M16.856 6C15.92 6 15.164 6.756 15.164 7.656V8.016C13.58 6.684 11.528 5.892 9.296 5.892C4.22 5.892 0.08 9.996 0.08 15.108C0.08 20.184 4.22 24.288 9.296 24.288C11.528 24.288 13.58 23.496 15.164 22.164C15.02 26.628 10.448 28.68 7.136 27.168C6.272 26.772 5.3 27.168 4.94 27.996C4.58 28.86 4.94 29.832 5.768 30.192C11.096 32.496 18.512 29.4 18.512 21.948V7.656C18.512 6.756 17.756 6 16.856 6ZM9.296 20.688C6.2 20.688 3.716 18.168 3.716 15.108C3.716 12.012 6.2 9.492 9.296 9.492C12.392 9.492 14.876 12.012 14.876 15.108C14.876 18.168 12.392 20.688 9.296 20.688ZM24.7771 2.184C24.7771 3.048 24.0571 3.768 23.1931 3.768C22.2571 3.768 21.5371 3.048 21.5371 2.184C21.5371 1.248 22.2571 0.528 23.1931 0.528C24.0571 0.528 24.7771 1.248 24.7771 2.184ZM23.1931 24C22.1851 24 21.3931 23.208 21.3931 22.2V7.584C21.3931 6.576 22.1851 5.784 23.1931 5.784C24.2011 5.784 24.9931 6.576 24.9931 7.584V22.2C24.9931 23.208 24.2011 24 23.1931 24ZM34.8141 24C34.0941 24 33.4461 23.568 33.1581 22.884L27.2901 8.484C26.8941 7.584 27.3261 6.54 28.2621 6.144C29.1621 5.784 30.2061 6.216 30.5661 7.116L34.8141 17.52L39.0621 7.116C39.4581 6.216 40.5021 5.784 41.4021 6.144C42.3021 6.54 42.7341 7.584 42.3741 8.484L36.4701 22.884C36.2181 23.568 35.5341 24 34.8141 24ZM61.4594 13.848C61.1714 10.212 58.3274 7.08 54.8354 6.144C52.2074 5.532 48.8954 5.784 46.1954 8.484C43.3154 11.4 42.8114 16.152 44.8274 19.68C46.3034 22.2 49.0394 24.288 52.8194 24.288C55.0874 24.288 57.2474 23.46 58.9394 21.948C59.6234 21.336 59.6954 20.292 59.0834 19.572C58.4714 18.852 57.3914 18.816 56.7074 19.428C53.5394 22.164 48.1034 20.904 47.0954 16.224H58.2914C59.2634 16.224 60.4154 16.296 61.0634 15.576C61.4954 15.072 61.4954 14.46 61.4594 13.848ZM47.2034 13.452C47.7074 10.896 49.8674 8.988 52.5674 8.988C55.2674 8.988 57.5714 10.896 58.1114 13.452H47.2034ZM73.0076 5.82C70.8836 5.82 68.9036 6.54 67.3556 7.764V2.076C67.3556 1.104 66.5636 0.311998 65.5916 0.311998H65.4476C64.5116 0.311998 63.7916 1.032 63.7916 1.932V22.344C63.7916 23.28 64.5116 24 65.4476 24C66.3476 24 67.0676 23.28 67.0676 22.344V22.092C68.6876 23.424 70.7396 24.252 73.0076 24.252C78.0836 24.252 82.2236 20.112 82.2236 15.036C82.2236 9.96 78.0836 5.82 73.0076 5.82ZM73.0076 20.688C69.9116 20.688 67.3556 18.132 67.3556 15.036C67.3556 11.94 69.9116 9.384 73.0076 9.384C76.1036 9.384 78.6596 11.94 78.6596 15.036C78.6596 18.132 76.1036 20.688 73.0076 20.688ZM93.5413 6.288C91.5973 5.496 89.2933 5.64 87.3493 6.936C87.0613 6.396 86.5213 6 85.8373 6C84.9373 6 84.2173 6.756 84.2173 7.656V22.2C84.2173 23.208 85.0093 24 85.9813 24C86.9893 24 87.7813 23.208 87.7813 22.2V12.696C87.7813 10.032 90.3733 8.952 92.2813 9.636C93.1813 9.96 94.2253 9.528 94.5853 8.592C94.9453 7.656 94.4773 6.684 93.5413 6.288ZM100.047 2.184C100.047 3.048 99.3267 3.768 98.4627 3.768C97.5267 3.768 96.8067 3.048 96.8067 2.184C96.8067 1.248 97.5267 0.528 98.4627 0.528C99.3267 0.528 100.047 1.248 100.047 2.184ZM98.4627 24C97.4547 24 96.6627 23.208 96.6627 22.2V7.584C96.6627 6.576 97.4547 5.784 98.4627 5.784C99.4707 5.784 100.263 6.576 100.263 7.584V22.2C100.263 23.208 99.4707 24 98.4627 24ZM110.66 20.4H109.4C107.816 20.4 106.556 19.14 106.556 17.556V8.844H111.056C111.848 8.844 112.496 8.232 112.496 7.44C112.496 6.612 111.848 6 111.056 6H106.556V2.076C106.556 1.068 105.728 0.275999 104.756 0.275999C103.748 0.275999 102.956 1.068 102.956 2.076V17.556C102.956 21.12 105.836 24 109.4 24H110.66C111.668 24 112.46 23.208 112.46 22.2C112.46 21.228 111.668 20.4 110.66 20.4ZM131.28 13.848C130.992 10.212 128.148 7.08 124.656 6.144C122.028 5.532 118.716 5.784 116.016 8.484C113.136 11.4 112.632 16.152 114.648 19.68C116.124 22.2 118.86 24.288 122.64 24.288C124.908 24.288 127.068 23.46 128.76 21.948C129.444 21.336 129.516 20.292 128.904 19.572C128.292 18.852 127.212 18.816 126.528 19.428C123.36 22.164 117.924 20.904 116.916 16.224H128.112C129.084 16.224 130.236 16.296 130.884 15.576C131.316 15.072 131.316 14.46 131.28 13.848ZM117.024 13.452C117.528 10.896 119.688 8.988 122.388 8.988C125.088 8.988 127.392 10.896 127.932 13.452H117.024Z" fill="white"/>
<path d="M137.392 21.876C137.392 23.028 136.42 24 135.268 24C134.08 24 133.072 23.028 133.072 21.876C133.072 20.652 134.08 19.68 135.268 19.68C136.42 19.68 137.392 20.652 137.392 21.876Z" fill="#00FF84"/>
</svg>
